<svg width="24" height="24" viewBox="0 0 24 24" fill="none" xmlns="http://www.w3.org/2000/svg">
<path d="M12.7 12.5C12.3 12.1 11.7 12.1 11.3 12.5L8.3 15.5C7.9 15.9 7.9 16.5 8.3 16.9C8.7 17.3 9.3 17.3 9.7 16.9L12 14.6L14.3 16.9C14.5 17.1 14.7 17.2 15 17.2C15.3 17.2 15.5 17.1 15.7 16.9C16.1 16.5 16.1 15.9 15.7 15.5L12.7 12.5ZM9.7 11.5L12 9.19999L14.3 11.5C14.5 11.7 14.7 11.8 15 11.8C15.3 11.8 15.5 11.7 15.7 11.5C16.1 11.1 16.1 10.5 15.7 10.1L12.7 7.09999C12.3 6.69999 11.7 6.69999 11.3 7.09999L8.3 10.1C7.9 10.5 7.9 11.1 8.3 11.5C8.7 11.8 9.3 11.8 9.7 11.5Z" fill="#FFBC57"/>
</svg>
