<svg width="24" height="24" viewBox="0 0 24 24" fill="none" xmlns="http://www.w3.org/2000/svg">
<path d="M12.8092 14.8101L17.6615 9.95784C17.7688 9.85145 17.8539 9.72488 17.912 9.58542C17.9701 9.44596 18 9.29638 18 9.14531C18 8.99424 17.9701 8.84466 17.912 8.7052C17.8539 8.56574 17.7688 8.43917 17.6615 8.33278C17.4471 8.11964 17.157 8 16.8547 8C16.5523 8 16.2623 8.11964 16.0479 8.33278L11.9967 12.384L7.9455 8.33278C7.73109 8.11964 7.44103 8 7.1387 8C6.83636 8 6.54631 8.11964 6.33189 8.33278C6.22583 8.43972 6.14192 8.56653 6.08497 8.70597C6.02802 8.8454 5.99915 8.9947 6.00002 9.14531C5.99915 9.29592 6.02802 9.44522 6.08497 9.58465C6.14192 9.72408 6.22583 9.8509 6.33189 9.95784L11.1842 14.8101C11.2906 14.9174 11.4171 15.0025 11.5566 15.0606C11.696 15.1187 11.8456 15.1486 11.9967 15.1486C12.1478 15.1486 12.2973 15.1187 12.4368 15.0606C12.5763 15.0025 12.7028 14.9174 12.8092 14.8101Z" fill="#2B2929"/>
</svg>
