<svg width="80" height="80" viewBox="0 0 80 80" fill="none" xmlns="http://www.w3.org/2000/svg">
<g clip-path="url(#clip0_211_10468)">
<circle cx="40" cy="40" r="40" fill="white"/>
<path d="M17.0154 35.1198V55.5059C17.0154 56.0618 16.643 56.4325 16.0843 56.4325H12.3598C11.8012 56.4325 11.4287 56.0618 11.4287 55.5059V35.1198C11.4287 34.5638 11.8012 34.1931 12.3598 34.1931H16.0843C16.643 34.1931 17.0154 34.6564 17.0154 35.1198ZM67.6405 34.1931H63.916C63.3573 34.1931 62.9849 34.5638 62.9849 35.1198V55.5059C62.9849 56.0618 63.3573 56.4325 63.916 56.4325H67.6405C68.1991 56.4325 68.5716 56.0618 68.5716 55.5059V35.1198C68.5716 34.6564 68.1991 34.1931 67.6405 34.1931Z" fill="#FFBC57"/>
<path d="M61.1224 40.6795V46.2394C61.1224 46.7954 60.75 47.166 60.1913 47.166H19.8086C19.2499 47.166 18.8774 46.7954 18.8774 46.2394V40.6795C18.8774 40.1236 19.2499 39.7529 19.8086 39.7529H60.1913C60.75 39.7529 61.1224 40.1236 61.1224 40.6795ZM19.8086 37.8996H30.7865C31.3452 37.8996 31.7176 37.529 31.7176 36.973V24.9266C31.7176 24.3707 31.3452 24 30.7865 24H19.8086C19.2499 24 18.8774 24.3707 18.8774 24.9266V36.973C18.8774 37.529 19.2499 37.8996 19.8086 37.8996ZM34.511 37.8996H45.4889C46.0476 37.8996 46.42 37.529 46.42 36.973V24.9266C46.42 24.3707 46.0476 24 45.4889 24H34.511C33.9523 24 33.5799 24.3707 33.5799 24.9266V36.973C33.5799 37.529 33.9523 37.8996 34.511 37.8996ZM60.1913 24H49.2134C48.6547 24 48.2823 24.3707 48.2823 24.9266V36.973C48.2823 37.529 48.6547 37.8996 49.2134 37.8996H60.1913C60.75 37.8996 61.1224 37.529 61.1224 36.973V24.9266C61.1224 24.3707 60.75 24 60.1913 24ZM60.1913 49.0193H19.8086C19.2499 49.0193 18.8774 49.39 18.8774 49.9459V55.5058C18.8774 56.0618 19.2499 56.4324 19.8086 56.4324H25.1998C25.7585 56.4324 26.1309 56.0618 26.1309 55.5058V54.5791H53.869V55.5058C53.869 56.0618 54.2414 56.4324 54.8001 56.4324H60.1913C60.75 56.4324 61.1224 56.0618 61.1224 55.5058V49.9459C61.1224 49.39 60.75 49.0193 60.1913 49.0193Z" fill="#FFBC57"/>
</g>
<defs>
<clipPath id="clip0_211_10468">
<rect width="80" height="80" fill="white"/>
</clipPath>
</defs>
</svg>
