<svg width="24" height="24" viewBox="0 0 24 24" fill="none" xmlns="http://www.w3.org/2000/svg">
<path d="M17.6 4H6.4C5.76348 4 5.15303 4.25286 4.70294 4.70294C4.25286 5.15303 4 5.76348 4 6.4V17.6C4 18.2365 4.25286 18.847 4.70294 19.2971C5.15303 19.7471 5.76348 20 6.4 20H17.6C18.2365 20 18.847 19.7471 19.2971 19.2971C19.7471 18.847 20 18.2365 20 17.6V6.4C20 5.76348 19.7471 5.15303 19.2971 4.70294C18.847 4.25286 18.2365 4 17.6 4ZM18.4 17.6C18.4 17.8122 18.3157 18.0157 18.1657 18.1657C18.0157 18.3157 17.8122 18.4 17.6 18.4H6.4C6.18783 18.4 5.98434 18.3157 5.83431 18.1657C5.68429 18.0157 5.6 17.8122 5.6 17.6V6.4C5.6 6.18783 5.68429 5.98434 5.83431 5.83431C5.98434 5.68429 6.18783 5.6 6.4 5.6H17.6C17.8122 5.6 18.0157 5.68429 18.1657 5.83431C18.3157 5.98434 18.4 6.18783 18.4 6.4V17.6Z" fill="#B1B1B1"/>
</svg>
