<svg width="24" height="24" viewBox="0 0 24 24" fill="none" xmlns="http://www.w3.org/2000/svg">
<path fill-rule="evenodd" clip-rule="evenodd" d="M13.6571 12L17.6536 8.00355C17.7634 7.89468 17.8505 7.76515 17.9099 7.62244C17.9694 7.47972 18 7.32665 18 7.17205C18 7.01745 17.9694 6.86438 17.9099 6.72166C17.8505 6.57895 17.7634 6.44942 17.6536 6.34055C17.4342 6.12243 17.1373 6 16.8279 6C16.5185 6 16.2217 6.12243 16.0023 6.34055L11.8565 10.4863L7.71076 6.34055C7.49133 6.12243 7.19451 6 6.88511 6C6.57572 6 6.2789 6.12243 6.05947 6.34055C5.95093 6.44998 5.86506 6.57976 5.80678 6.72245C5.7485 6.86514 5.71896 7.01792 5.71985 7.17205C5.71896 7.32618 5.7485 7.47896 5.80678 7.62165C5.86506 7.76434 5.95093 7.89412 6.05947 8.00355L10.0559 12L6.05947 15.9965C5.95093 16.1059 5.86506 16.2357 5.80678 16.3783C5.7485 16.521 5.71896 16.6738 5.71985 16.8279C5.71896 16.9821 5.7485 17.1349 5.80678 17.2776C5.86506 17.4202 5.95093 17.55 6.05947 17.6594C6.2789 17.8776 6.57572 18 6.88511 18C7.19451 18 7.49133 17.8776 7.71076 17.6594L11.8565 13.5137L16.0023 17.6594C16.2217 17.8776 16.5185 18 16.8279 18C17.1373 18 17.4342 17.8776 17.6536 17.6594C17.7634 17.5506 17.8505 17.421 17.9099 17.2783C17.9694 17.1356 18 16.9826 18 16.8279C18 16.6733 17.9694 16.5203 17.9099 16.3776C17.8505 16.2349 17.7634 16.1053 17.6536 15.9965L13.6571 12Z" fill="#2B2929"/>
</svg>
