<svg width="80" height="80" viewBox="0 0 80 80" fill="none" xmlns="http://www.w3.org/2000/svg">
<path d="M13.9651 73.8179C21.6778 73.8179 27.9302 67.5655 27.9302 59.8528C27.9302 52.1401 21.6778 45.8877 13.9651 45.8877C6.25238 45.8877 0 52.1401 0 59.8528C0 67.5655 6.25238 73.8179 13.9651 73.8179Z" fill="#FFBC57"/>
<path d="M36.2093 24.9402C42.8202 24.9402 48.1794 19.581 48.1794 12.9701C48.1794 6.35919 42.8202 1 36.2093 1C29.5984 1 24.2393 6.35919 24.2393 12.9701C24.2393 19.581 29.5984 24.9402 36.2093 24.9402Z" fill="#FFBC57"/>
<path d="M60.0497 78.8055C71.0679 78.8055 79.9999 69.8735 79.9999 58.8554C79.9999 47.8372 71.0679 38.9053 60.0497 38.9053C49.0316 38.9053 40.0996 47.8372 40.0996 58.8554C40.0996 69.8735 49.0316 78.8055 60.0497 78.8055Z" fill="#FFBC57"/>
<path d="M41.1975 73.7183C58.8266 73.7183 73.1177 59.4272 73.1177 41.7981C73.1177 24.1691 58.8266 9.87793 41.1975 9.87793C23.5685 9.87793 9.27734 24.1691 9.27734 41.7981C9.27734 59.4272 23.5685 73.7183 41.1975 73.7183Z" fill="white"/>
<path d="M41.1972 74.4167C23.1423 74.4167 8.479 59.7534 8.479 41.6985C8.479 23.6437 23.1423 9.08008 41.1972 9.08008C59.2521 9.08008 73.8157 23.7434 73.8157 41.7983C73.8157 59.8532 59.1523 74.4167 41.1972 74.4167ZM41.1972 10.5763C23.9404 10.5763 9.97526 24.5414 9.97526 41.7983C9.97526 58.9554 23.9404 73.0202 41.1972 73.0202C58.3543 73.0202 72.4192 59.0551 72.4192 41.7983C72.3194 24.5414 58.3543 10.5763 41.1972 10.5763Z" fill="#2B2929"/>
<path d="M40.5987 29.8276L34.3144 25.6381C30.2246 22.9449 24.8381 23.5434 21.5463 27.1344L16.2595 32.8202C15.262 33.9174 14.7633 35.3139 14.9628 36.8102L18.9528 68.2316C19.1523 69.8277 20.6486 71.0247 22.2446 70.8252L43.9902 68.1319C45.5862 67.9324 46.7832 66.4361 46.5837 64.8401L42.6935 33.4187C42.5937 31.9224 41.7957 30.6257 40.5987 29.8276Z" fill="white"/>
<path d="M21.9456 71.5238C21.1476 71.5238 20.3496 71.2245 19.6513 70.7258C18.8533 70.1273 18.3546 69.2295 18.2548 68.232L14.3645 36.9103C14.165 35.2146 14.6638 33.5188 15.8608 32.3218L21.1476 26.636C24.7386 22.7457 30.5241 22.0475 34.9132 25.04L41.1974 29.2295C42.594 30.1273 43.4917 31.6235 43.6912 33.3193L47.5815 64.7407C47.6812 65.7383 47.4817 66.7358 46.7835 67.5338C46.185 68.3318 45.2872 68.8305 44.2897 68.9303L22.5441 71.6235C22.2448 71.5238 22.0453 71.5238 21.9456 71.5238ZM28.8284 24.641C26.3346 24.641 23.9406 25.6385 22.1451 27.6335L16.8583 33.3193C16.0603 34.2171 15.6613 35.5138 15.761 36.7108L19.6513 68.0325C19.7511 68.631 20.0503 69.1298 20.5491 69.5288C21.0478 69.9278 21.6463 70.0275 22.2448 70.0275L43.9905 67.3343C44.589 67.2345 45.0877 66.9353 45.4867 66.4365C45.8857 65.9378 45.9855 65.3393 45.9855 64.7407L42.0952 33.3193C41.8957 32.1223 41.2972 31.025 40.2997 30.3268L33.9156 26.237C32.4194 25.2395 30.6239 24.641 28.8284 24.641Z" fill="#2B2929"/>
<path d="M46.0853 20.0526L38.9032 17.7583C34.3147 16.2621 29.2274 18.3568 27.0329 22.7459L23.5417 29.6287C22.9431 30.9254 22.9431 32.5214 23.5417 33.8182L35.9107 62.9454C36.609 64.4416 38.3047 65.1399 39.801 64.5414L60.0504 55.8631C61.5466 55.2646 62.2449 53.4691 61.6464 51.9728L49.1776 22.8456C48.5791 21.5489 47.4818 20.5514 46.0853 20.0526Z" fill="white"/>
<path d="M38.6038 65.4391C37.1075 65.4391 35.8108 64.5413 35.1125 63.1448L22.8432 34.1174C22.1449 32.5213 22.2447 30.8256 22.9429 29.3293L26.4342 22.4465C28.8282 17.7583 34.2147 15.464 39.2023 17.06L46.3843 19.3543C47.9803 19.853 49.2771 21.05 49.8756 22.5463L62.2447 51.6735C63.0427 53.5687 62.1449 55.7632 60.2497 56.5612L40.1 65.1398C39.6013 65.3393 39.1025 65.4391 38.6038 65.4391ZM35.9105 18.0575C32.519 18.0575 29.4267 19.9528 27.8307 23.1448L24.3394 30.0276C23.7409 31.1248 23.7409 32.4216 24.2397 33.6186L36.6088 62.646C37.1075 63.7433 38.4043 64.3418 39.6013 63.843L59.7509 55.2645C60.8482 54.7657 61.4467 53.469 60.9479 52.272L48.4791 23.1448C47.9803 22.0475 47.0826 21.1498 45.8856 20.7508L38.7035 18.4565C37.8058 18.1573 36.8083 18.0575 35.9105 18.0575Z" fill="#2B2929"/>
<path d="M35.8108 32.4216C35.1125 32.4216 34.514 32.3219 33.8158 32.0226C32.519 31.5239 31.5215 30.5264 30.923 29.2296C30.3245 27.9329 30.3245 26.5364 30.923 25.2396C31.4218 23.9428 32.4193 22.9453 33.716 22.3468C35.0128 21.7483 36.4093 21.7483 37.706 22.3468C39.0028 22.8456 40.0003 23.8431 40.5988 25.1398C41.1973 26.4366 41.1973 27.8331 40.5988 29.1299C40.1001 30.4266 39.1026 31.4241 37.8058 32.0226C37.2073 32.2221 36.509 32.4216 35.8108 32.4216ZM35.8108 23.4441C35.312 23.4441 34.8133 23.5438 34.3145 23.7433C33.4168 24.1423 32.7185 24.8406 32.3195 25.7383C31.9205 26.6361 31.9205 27.6336 32.3195 28.6311C32.7185 29.5289 33.4168 30.2271 34.3145 30.6261C35.2123 31.0251 36.2098 31.0251 37.2073 30.6261C38.105 30.2271 38.8033 29.5289 39.2023 28.6311C39.6013 27.7334 39.6013 26.7359 39.2023 25.7383C38.8033 24.8406 38.105 24.1423 37.1075 23.7433C36.8083 23.5438 36.3095 23.4441 35.8108 23.4441Z" fill="#2B2929"/>
<path d="M37.4066 28.4314C36.2096 28.4314 35.4116 27.8329 35.0126 27.3341C34.1148 26.2369 34.0151 24.5411 34.6136 22.4464C34.7133 22.0473 35.1123 21.8478 35.5113 21.9476C35.9103 22.0473 36.1098 22.4464 36.0101 22.8454C35.5113 24.3416 35.6111 25.7381 36.1098 26.3366C36.4091 26.7356 36.9078 26.8354 37.5063 26.8354C39.9004 26.6359 43.2919 23.5436 44.8879 20.0523C46.0849 17.5586 45.8854 15.8628 45.3866 15.1646C45.0874 14.7656 44.5886 14.5661 43.9901 14.5661C42.4939 14.6658 40.4989 15.9626 38.8031 17.9576C38.5038 18.2568 38.1048 18.3566 37.7058 18.0573C37.4066 17.7581 37.3068 17.3591 37.6061 16.9601C39.6011 14.6658 41.8954 13.1695 43.8904 12.97C45.0874 12.8703 46.0849 13.2693 46.6834 14.167C47.6809 15.5636 47.4814 17.9576 46.2844 20.5511C44.3891 24.6409 40.5986 28.0324 37.6061 28.2319C37.6061 28.4314 37.5063 28.4314 37.4066 28.4314Z" fill="#2B2929"/>
<path d="M39.7008 58.5562C39.6011 58.5562 39.5013 58.5562 39.4016 58.4565C39.0026 58.257 38.8031 57.858 39.0026 57.459L47.9801 35.2146C48.1796 34.8156 48.5786 34.6161 48.9776 34.8156C49.3766 35.0151 49.5761 35.4141 49.3766 35.8131L40.3991 58.0575C40.2993 58.3567 40.0001 58.5562 39.7008 58.5562Z" fill="#FFBC57"/>
<path d="M39.8006 42.6958C40.4989 44.1921 39.7009 45.9876 38.2046 46.6858C36.7084 47.3841 34.9128 46.5861 34.2146 45.0898C33.5163 43.5936 34.3143 41.7981 35.8106 41.0998C37.4066 40.4015 39.2021 41.0998 39.8006 42.6958Z" fill="white"/>
<path d="M37.0078 47.5835C36.5091 47.5835 36.0103 47.4838 35.6113 47.2843C34.7136 46.8853 33.9156 46.187 33.5166 45.2893C32.7186 43.394 33.6163 41.1995 35.5116 40.3017C37.4069 39.5037 39.6014 40.4015 40.4991 42.2967C40.8981 43.1945 40.8981 44.2918 40.4991 45.1895C40.1001 46.0873 39.4019 46.8853 38.5041 47.2843C38.0054 47.4838 37.5066 47.5835 37.0078 47.5835ZM37.0078 41.5985C36.7086 41.5985 36.4093 41.6982 36.1101 41.798C34.9131 42.2967 34.4143 43.5935 34.9131 44.7905C35.1126 45.389 35.6113 45.788 36.1101 45.9875C36.7086 46.187 37.3071 46.187 37.8059 45.9875C38.4044 45.788 38.8034 45.2893 39.0029 44.7905C39.2024 44.192 39.2024 43.5935 39.0029 43.0947C38.7036 42.0972 37.9056 41.5985 37.0078 41.5985Z" fill="#FFBC57"/>
<path d="M54.0653 48.382C54.7635 49.8783 53.9655 51.6738 52.4693 52.3721C50.973 53.0703 49.1775 52.2723 48.4792 50.776C47.781 49.2798 48.579 47.4843 50.0753 46.786C51.6713 46.1875 53.4668 46.8858 54.0653 48.382Z" fill="white"/>
<path d="M51.272 53.3692C49.7757 53.3692 48.3792 52.4714 47.7807 51.0749C46.9827 49.1796 47.8805 46.9851 49.7757 46.0874C51.671 45.2894 53.8655 46.1871 54.7633 48.0824C55.5613 49.9777 54.6635 52.1722 52.7683 53.0699C52.2695 53.2694 51.7708 53.3692 51.272 53.3692ZM51.272 47.2844C50.9728 47.2844 50.6735 47.3841 50.3743 47.4839C49.1772 47.9826 48.6785 49.2794 49.1772 50.4764C49.676 51.6734 50.9728 52.1722 52.1698 51.6734C53.3668 51.1747 53.8655 49.8779 53.3668 48.6809C53.0675 47.8829 52.1698 47.2844 51.272 47.2844Z" fill="#FFBC57"/>
<path d="M22.3444 54.9653C21.9454 54.9653 21.6462 54.6661 21.6462 54.2671L19.8507 39.6037C19.7509 39.2047 20.0502 38.8057 20.5489 38.8057C20.9479 38.706 21.3469 39.0052 21.3469 39.504L23.1424 54.1673C23.1424 54.5663 22.8432 54.8656 22.3444 54.9653C22.4442 54.9653 22.3444 54.9653 22.3444 54.9653Z" fill="#2B2929"/>
<path d="M23.4417 63.4438C23.0427 63.4438 22.7435 63.1446 22.7435 62.7456L22.2447 58.7555C22.1449 58.3565 22.4442 57.9575 22.943 57.9575C23.342 57.9575 23.741 58.157 23.741 58.6558L24.2397 62.6458C24.14 62.9451 23.9405 63.3441 23.4417 63.4438Z" fill="#2B2929"/>
</svg>
