<svg width="24" height="24" viewBox="0 0 24 24" fill="none" xmlns="http://www.w3.org/2000/svg">
<path fill-rule="evenodd" clip-rule="evenodd" d="M19.5 10.5H4.5C4.08638 10.5 3.70284 10.6401 3.42145 10.9214C3.14006 11.2028 3 11.5864 3 12C3 12.4136 3.14006 12.7972 3.42145 13.0786C3.70284 13.3599 4.08638 13.5 4.5 13.5H19.5C19.9136 13.5 20.2972 13.3599 20.5786 13.0786C20.8599 12.7972 21 12.4136 21 12C21 11.5864 20.8599 11.2028 20.5786 10.9214C20.2972 10.6401 19.9136 10.5 19.5 10.5ZM2.5 5.5H21.5C21.9136 5.5 22.2972 5.35994 22.5786 5.07855C22.8599 4.79716 23 4.41362 23 4C23 3.58638 22.8599 3.20284 22.5786 2.92145C22.2972 2.64006 21.9136 2.5 21.5 2.5H2.5C2.08638 2.5 1.70284 2.64006 1.42145 2.92145C1.14006 3.20284 1 3.58638 1 4C1 4.41362 1.14006 4.79716 1.42145 5.07855C1.70284 5.35994 2.08638 5.5 2.5 5.5ZM17.5 18.5H6.5C6.08638 18.5 5.70284 18.6401 5.42145 18.9214C5.14006 19.2028 5 19.5864 5 20C5 20.4136 5.14006 20.7972 5.42145 21.0786C5.70284 21.3599 6.08638 21.5 6.5 21.5H17.5C17.9136 21.5 18.2972 21.3599 18.5786 21.0786C18.8599 20.7972 19 20.4136 19 20C19 19.5864 18.8599 19.2028 18.5786 18.9214C18.2972 18.6401 17.9136 18.5 17.5 18.5Z" fill="#535353"/>
</svg>
