<svg width="25" height="24" viewBox="0 0 25 24" fill="none" xmlns="http://www.w3.org/2000/svg">
<path d="M22.2101 4.72006L19.7801 2.29006C19.5928 2.10381 19.3393 1.99927 19.0751 1.99927C18.811 1.99927 18.5575 2.10381 18.3701 2.29006L12.7901 7.87006C12.6975 7.9635 12.6241 8.07432 12.5744 8.19615C12.5246 8.31799 12.4994 8.44845 12.5001 8.58006V11.0001C12.5001 11.2653 12.6055 11.5196 12.793 11.7072C12.9806 11.8947 13.2349 12.0001 13.5001 12.0001H15.9201C16.0517 12.0008 16.1822 11.9756 16.304 11.9258C16.4259 11.8761 16.5367 11.8027 16.6301 11.7101L22.2101 6.13006C22.3964 5.9427 22.5009 5.68925 22.5009 5.42506C22.5009 5.16087 22.3964 4.90742 22.2101 4.72006ZM15.5001 10.0001H14.5001V9.00006L19.0801 4.42006L20.0801 5.42006L15.5001 10.0001ZM19.5001 12.0001C19.2349 12.0001 18.9806 12.1054 18.793 12.293C18.6055 12.4805 18.5001 12.7348 18.5001 13.0001C18.5001 14.8566 17.7626 16.6371 16.4499 17.9498C15.1371 19.2626 13.3567 20.0001 11.5001 20.0001H5.91014L6.55014 19.3701C6.64387 19.2771 6.71826 19.1665 6.76903 19.0446C6.8198 18.9228 6.84594 18.7921 6.84594 18.6601C6.84594 18.528 6.8198 18.3973 6.76903 18.2755C6.71826 18.1536 6.64387 18.043 6.55014 17.9501C5.57107 16.9711 4.9043 15.7238 4.63417 14.3658C4.36403 13.0079 4.50265 11.6004 5.03251 10.3212C5.56236 9.04206 6.45965 7.94878 7.61088 7.17961C8.76212 6.41045 10.1156 5.99996 11.5001 6.00006C11.7654 6.00006 12.0197 5.8947 12.2072 5.70717C12.3948 5.51963 12.5001 5.26528 12.5001 5.00006C12.5001 4.73484 12.3948 4.48049 12.2072 4.29295C12.0197 4.10542 11.7654 4.00006 11.5001 4.00006C9.8076 4.00562 8.15094 4.48834 6.72033 5.3928C5.28971 6.29726 4.14313 7.58679 3.41221 9.11338C2.68129 10.64 2.39565 12.3417 2.58808 14.0233C2.78052 15.7048 3.44323 17.2981 4.50014 18.6201L2.79014 20.2901C2.65138 20.4307 2.55739 20.6093 2.52001 20.8032C2.48264 20.9972 2.50356 21.1979 2.58014 21.3801C2.65516 21.5627 2.78256 21.719 2.94628 21.8293C3.11 21.9397 3.30271 21.9991 3.50014 22.0001H11.5001C12.682 22.0001 13.8524 21.7673 14.9443 21.315C16.0362 20.8627 17.0284 20.1997 17.8641 19.364C18.6998 18.5283 19.3628 17.5361 19.8151 16.4442C20.2673 15.3523 20.5001 14.182 20.5001 13.0001C20.5001 12.7348 20.3948 12.4805 20.2072 12.293C20.0197 12.1054 19.7654 12.0001 19.5001 12.0001Z" fill="white"/>
</svg>
