<svg width="80" height="80" viewBox="0 0 80 80" fill="none" xmlns="http://www.w3.org/2000/svg">
<path d="M62.3173 40.8464C70.4993 40.8464 77.1321 34.2136 77.1321 26.0316C77.1321 17.8496 70.4993 11.2168 62.3173 11.2168C54.1353 11.2168 47.5024 17.8496 47.5024 26.0316C47.5024 34.2136 54.1353 40.8464 62.3173 40.8464Z" fill="#FFBC57"/>
<path d="M21.6823 25.3968C28.6954 25.3968 34.3807 19.7116 34.3807 12.6984C34.3807 5.68527 28.6954 0 21.6823 0C14.6692 0 8.98389 5.68527 8.98389 12.6984C8.98389 19.7116 14.6692 25.3968 21.6823 25.3968Z" fill="#FFBC57"/>
<path d="M23.164 79.9999C34.8526 79.9999 44.328 70.5245 44.328 58.8359C44.328 47.1473 34.8526 37.6719 23.164 37.6719C11.4755 37.6719 2 47.1473 2 58.8359C2 70.5245 11.4755 79.9999 23.164 79.9999Z" fill="#FFBC57"/>
<path d="M39.3546 23.386C32.3705 24.2326 26.6562 29.841 25.7038 36.7193C25.1747 40.423 25.9155 43.9151 27.6086 46.8781L25.4922 55.0262L33.6403 53.0156C36.6033 54.7087 40.0954 55.4495 43.7991 54.9204C50.7832 53.8622 56.2858 48.2537 57.1324 41.2696C58.4022 30.7934 49.725 22.1162 39.3546 23.386Z" fill="white"/>
<path d="M41.3654 55.8727C38.614 55.8727 35.9685 55.2378 33.5347 53.8621L25.704 55.7669C25.3865 55.8727 25.1749 55.7669 24.9632 55.5553C24.7516 55.3436 24.6458 55.0261 24.7516 54.8145L26.6564 46.9838C24.9632 43.8092 24.3283 40.2113 24.8574 36.6135C25.9156 29.206 31.8415 23.4918 39.249 22.5394C44.4341 21.9045 49.5135 23.5976 53.1114 27.3013C56.8151 31.005 58.5082 35.9785 57.8733 41.1637C56.9209 48.5711 51.2066 54.4971 43.7992 55.5553C43.0585 55.7669 42.2119 55.8727 41.3654 55.8727ZM33.6405 52.169C33.7463 52.169 33.9579 52.169 34.0638 52.2748C37.0267 53.968 40.3072 54.4971 43.6934 54.0738C50.3601 53.1214 55.5453 47.7246 56.3918 41.0579C56.9209 36.4018 55.4394 31.7457 52.0532 28.4653C48.7728 25.1849 44.1167 23.5976 39.4606 24.1267C32.7939 24.9732 27.3971 30.1584 26.4447 36.8251C25.9156 40.2113 26.5505 43.4918 28.2437 46.4547C28.3495 46.6664 28.3495 46.878 28.3495 46.9838L26.6564 53.968L33.5347 52.2748C33.5347 52.169 33.6405 52.169 33.6405 52.169Z" fill="#2B2929"/>
<path d="M41.3654 44.3387C40.9422 44.3387 40.5189 44.0212 40.5189 43.4921V42.8572C40.5189 40.3175 42.0004 39.1535 43.1644 38.3069C44.2226 37.5662 44.9633 36.9313 44.9633 35.4498C44.9633 33.7566 43.9051 32.381 42.4236 31.9577C41.2596 31.6402 39.9898 31.8519 39.0374 32.4868C38.085 33.2275 37.5559 34.2857 37.5559 35.4498C37.5559 35.8731 37.2385 36.2963 36.7094 36.2963C36.2861 36.2963 35.8628 35.9789 35.8628 35.4498C35.8628 33.7566 36.7094 32.1693 37.9792 31.217C39.3549 30.1588 41.048 29.9471 42.7411 30.3704C44.9633 31.0053 46.4448 33.0159 46.4448 35.4498C46.4448 37.7778 45.0691 38.7302 43.9051 39.5768C42.8469 40.4233 41.8945 41.0582 41.8945 42.8572V43.4921C42.212 44.0212 41.8945 44.3387 41.3654 44.3387Z" fill="#FFBC57"/>
<path d="M42.1061 47.4073C41.6828 46.984 41.0479 46.984 40.6246 47.4073C40.4129 47.6189 40.3071 47.8306 40.3071 48.148C40.3071 48.4655 40.4129 48.6771 40.6246 48.8888C40.8362 49.1004 41.0479 49.2062 41.3653 49.2062C41.6828 49.2062 41.8944 49.1004 42.1061 48.8888C42.3177 48.6771 42.4235 48.4655 42.4235 48.148C42.4235 47.8306 42.3177 47.5131 42.1061 47.4073Z" fill="#FFBC57"/>
<path d="M41.3654 70.8993C40.9422 70.8993 40.5189 70.5819 40.5189 70.0528C40.5189 69.6295 40.8363 69.2062 41.3654 69.2062C57.8734 69.2062 71.3125 55.7671 71.3125 39.2591C71.3125 22.9628 57.8734 9.52369 41.3654 9.52369C24.9633 9.52369 11.5242 22.9628 11.5242 39.365C11.5242 39.8941 11.2067 40.2115 10.6776 40.2115C10.2543 40.2115 9.83105 39.8941 9.83105 39.365C9.83105 22.0105 23.9051 7.83057 41.2596 7.83057C58.6141 7.83057 72.8998 22.0105 72.8998 39.365C72.8998 56.7195 58.7199 70.8993 41.3654 70.8993Z" fill="#2B2929"/>
<path d="M44.54 73.2278H38.1908C35.8628 73.2278 33.958 71.323 33.958 68.995C33.958 66.667 35.8628 64.7622 38.1908 64.7622H44.54C46.8681 64.7622 48.7728 66.667 48.7728 68.995C48.7728 71.4289 46.9739 73.2278 44.54 73.2278Z" fill="white"/>
<path d="M44.5399 74.0738H38.1907C35.4394 74.0738 33.1113 71.8515 33.1113 68.9944C33.1113 66.2431 35.3336 63.915 38.1907 63.915H44.5399C47.2912 63.915 49.6193 66.1373 49.6193 68.9944C49.6193 71.8515 47.397 74.0738 44.5399 74.0738ZM38.1907 65.6082C36.2859 65.6082 34.6986 67.1955 34.6986 69.1002C34.6986 71.005 36.2859 72.5923 38.1907 72.5923H44.5399C46.4447 72.5923 48.032 71.005 48.032 69.1002C48.032 67.1955 46.4447 65.6082 44.5399 65.6082H38.1907Z" fill="#2B2929"/>
<path d="M15.9685 51.0055C11.3125 51.0055 7.50293 47.196 7.50293 42.5399V36.1907C7.50293 31.5346 11.3125 27.7251 15.9685 27.7251C17.1326 27.7251 18.0849 28.6775 18.0849 29.8415V48.8891C18.0849 50.159 17.1326 51.0055 15.9685 51.0055Z" fill="white"/>
<path d="M15.9684 51.852C10.8891 51.852 6.65625 47.725 6.65625 42.5398V36.1906C6.65625 31.1112 10.7832 26.8784 15.9684 26.8784C17.5557 26.8784 18.9314 28.1483 18.9314 29.8414V48.889C18.9314 50.5821 17.6615 51.852 15.9684 51.852ZM15.9684 28.5715C11.7356 28.5715 8.24355 32.0636 8.24355 36.2964V42.6456C8.24355 46.8784 11.7356 50.3705 15.9684 50.3705C16.7092 50.3705 17.3441 49.7356 17.3441 48.9948V29.9472C17.3441 29.2065 16.7092 28.5715 15.9684 28.5715Z" fill="#2B2929"/>
<path d="M12.7938 46.561C12.3705 46.561 11.9473 46.2435 11.9473 45.7144V33.016C11.9473 32.5927 12.2647 32.1694 12.7938 32.1694C13.2171 32.1694 13.6404 32.4869 13.6404 33.016V45.7144C13.6404 46.2435 13.3229 46.561 12.7938 46.561Z" fill="#2B2929"/>
<path d="M66.7619 51.0055C65.5979 51.0055 64.6455 50.0531 64.6455 48.8891V29.8415C64.6455 28.6775 65.5979 27.7251 66.7619 27.7251C71.418 27.7251 75.2275 31.5346 75.2275 36.1907V42.5399C75.2275 47.3018 71.5238 51.0055 66.7619 51.0055Z" fill="white"/>
<path d="M66.7619 51.852C65.1746 51.852 63.9048 50.5821 63.9048 48.889V29.8414C63.9048 28.2541 65.1746 26.8784 66.7619 26.8784C71.8413 26.8784 76.0741 31.0054 76.0741 36.1906V42.5398C76.0741 47.725 71.9471 51.852 66.7619 51.852ZM66.7619 28.5715C66.0212 28.5715 65.4921 29.2065 65.4921 29.9472V48.9948C65.4921 49.7356 66.127 50.3705 66.7619 50.3705C70.9947 50.3705 74.4868 46.8784 74.4868 42.6456V36.2964C74.4868 31.9578 70.9947 28.5715 66.7619 28.5715Z" fill="#2B2929"/>
<path d="M69.9369 46.561C69.5136 46.561 69.0903 46.2435 69.0903 45.7144V33.016C69.0903 32.5927 69.4078 32.1694 69.9369 32.1694C70.3602 32.1694 70.7835 32.4869 70.7835 33.016V45.7144C70.7835 46.2435 70.466 46.561 69.9369 46.561Z" fill="#2B2929"/>
<path d="M23.4818 18.5187C23.5876 18.4129 23.5876 18.5187 23.4818 18.5187C23.2702 18.6245 22.9527 18.8362 22.6353 18.942C23.0585 18.8362 23.2702 18.7304 23.4818 18.5187Z" fill="#FFBC57"/>
<path d="M41.3652 5.50293C32.8996 5.50293 25.1747 8.57171 19.2488 13.7569C18.1906 14.6035 18.1906 16.1908 19.143 17.1431L20.4128 18.413C21.2594 19.2595 22.635 19.2595 23.5874 18.5188C28.3493 14.3918 34.5927 11.958 41.471 11.958C48.2435 11.958 54.5927 14.3918 59.3546 18.5188C60.307 19.2595 61.6827 19.2595 62.5292 18.413L63.7991 17.1431C64.7515 16.1908 64.7515 14.6035 63.6933 13.7569C57.6615 8.67753 49.8308 5.50293 41.3652 5.50293Z" fill="white"/>
<path d="M60.8361 19.894C60.0953 19.894 59.3546 19.6824 58.8255 19.1533C53.9578 14.9204 47.8202 12.6982 41.3652 12.6982C35.016 12.6982 28.8784 15.0263 24.0107 19.1533C22.7408 20.2115 20.9419 20.2115 19.7779 19.0474L18.508 17.7776C17.8731 17.1427 17.5557 16.2961 17.5557 15.4495C17.5557 14.603 17.9789 13.7564 18.6139 13.2273C24.8573 7.8305 32.8996 4.76172 41.2594 4.76172C49.6192 4.76172 57.6615 7.72468 63.9049 13.2273C64.5398 13.7564 64.9631 14.603 64.9631 15.4495C64.9631 16.2961 64.6456 17.1427 64.0107 17.7776L62.7409 19.0474C62.4234 19.5765 61.5768 19.894 60.8361 19.894ZM41.3652 11.1109C48.1377 11.1109 54.5927 13.5448 59.7779 17.8834C60.4128 18.4125 61.2594 18.4125 61.8943 17.7776L63.1641 16.5078C63.4816 16.1903 63.5874 15.767 63.5874 15.3437C63.5874 14.9204 63.3758 14.4972 63.0583 14.2855C57.0266 9.20616 49.3017 6.34902 41.3652 6.34902C33.4287 6.34902 25.7038 9.20616 19.7779 14.3913C19.4604 14.7088 19.2488 15.0263 19.2488 15.4495C19.2488 15.8728 19.3546 16.2961 19.6721 16.6136L20.9419 17.8834C21.471 18.4125 22.4234 18.5183 23.0583 17.9892C28.1377 13.5448 34.6985 11.1109 41.3652 11.1109Z" fill="#2B2929"/>
</svg>
