<svg width="80" height="80" viewBox="0 0 80 80" fill="none" xmlns="http://www.w3.org/2000/svg">
<path d="M66.1729 40.8023C73.8094 40.8023 80 34.6116 80 26.9751C80 19.3386 73.8094 13.1479 66.1729 13.1479C58.5363 13.1479 52.3457 19.3386 52.3457 26.9751C52.3457 34.6116 58.5363 40.8023 66.1729 40.8023Z" fill="#FFBC57"/>
<path d="M34.2718 24.7037C40.8174 24.7037 46.1236 19.3974 46.1236 12.8519C46.1236 6.30625 40.8174 1 34.2718 1C27.7262 1 22.4199 6.30625 22.4199 12.8519C22.4199 19.3974 27.7262 24.7037 34.2718 24.7037Z" fill="#FFBC57"/>
<path d="M19.7531 78.5311C30.6624 78.5311 39.5062 69.6873 39.5062 58.778C39.5062 47.8687 30.6624 39.0249 19.7531 39.0249C8.84376 39.0249 0 47.8687 0 58.778C0 69.6873 8.84376 78.5311 19.7531 78.5311Z" fill="#FFBC57"/>
<path d="M69.0371 41.6292L63.9013 39.4564H50.0742C47.9013 39.4564 46.1235 37.6786 46.1235 35.5057V20.6909H39.21V60.1971H66.6667C67.4569 60.1971 68.247 59.9008 68.7408 59.3082L69.926 58.123C70.5186 57.5304 70.8149 56.8391 70.8149 56.0489V44.2959C70.8149 43.1107 70.1235 42.0243 69.0371 41.6292Z" fill="white"/>
<path d="M63.1112 41.6292L57.9754 39.4564H50.0742C47.9013 39.4564 46.1235 37.6786 46.1235 35.5057V20.6909H39.21V60.1971H60.7408C61.5309 60.1971 62.3211 59.9008 62.8149 59.3082L64.0001 58.123C64.5927 57.5304 64.889 56.8391 64.889 56.0489V44.2959C64.889 43.1107 64.1976 42.0243 63.1112 41.6292Z" fill="white"/>
<path d="M60.9385 47.3574L63.9014 53.2833H70.815V47.3574H60.9385Z" fill="white"/>
<path d="M60.9385 47.3574L62.9138 51.308H66.8644C67.457 51.308 67.8521 50.913 67.8521 50.3204V47.3574H60.9385Z" fill="white"/>
<path d="M70.8148 53.9753H63.9012C63.6049 53.9753 63.4074 53.7777 63.2099 53.5802L60.2469 47.6543C60.1482 47.4568 60.1482 47.1605 60.2469 46.9629C60.3457 46.7654 60.642 46.5679 60.8395 46.5679H70.7161C71.1111 46.5679 71.5062 46.8642 71.5062 47.358V53.2839C71.605 53.679 71.3087 53.9753 70.8148 53.9753ZM64.3951 52.4938H70.1235V48.0494H62.2222L64.3951 52.4938Z" fill="#2B2929"/>
<path d="M50.0742 39.4564H63.9013L56.2964 23.9502C55.3087 21.9749 53.2346 20.6909 50.963 20.6909H46.1235V35.5057C46.1235 37.6786 47.9013 39.4564 50.0742 39.4564Z" fill="white"/>
<path d="M56.2964 23.9502C55.3087 21.9749 53.2346 20.6909 50.963 20.6909H46.1235C48.2964 20.6909 50.3704 21.9749 51.3581 23.9502L58.963 39.4564H63.9013L56.2964 23.9502Z" fill="white"/>
<path d="M63.9014 40.1478H50.0742C47.5063 40.1478 45.3335 38.0737 45.3335 35.5058V20.691C45.3335 20.2959 45.6298 19.9009 46.1236 19.9009H50.9631C53.531 19.9009 55.8026 21.2836 56.9878 23.654L64.5928 39.1601C64.6915 39.3577 64.6915 39.654 64.5928 39.8515C64.3952 40.049 64.1977 40.1478 63.9014 40.1478ZM46.9137 21.3824V35.5058C46.9137 37.2836 48.3952 38.6663 50.173 38.6663H62.815L55.7039 24.2466C54.815 22.4688 53.0372 21.3824 51.0619 21.3824H46.9137Z" fill="#2B2929"/>
<path d="M9.58029 12.7896C8.49387 12.7896 7.60498 13.6784 7.60498 14.7649V58.2216C7.60498 59.3081 8.49387 60.197 9.58029 60.197H39.2099V14.7649C39.2099 13.6784 38.321 12.7896 37.2346 12.7896H9.58029Z" fill="white"/>
<path d="M9.58029 12.7896C8.49387 12.7896 7.60498 13.6784 7.60498 14.7649V55.2587H31.3087C32.3951 55.2587 33.284 54.3698 33.284 53.2834V12.7896H9.58029Z" fill="white"/>
<path d="M39.21 60.8889H9.58037C8.09889 60.8889 6.81494 59.7037 6.81494 58.1235V14.6667C6.91371 13.1852 8.09889 12 9.58037 12H37.2347C38.7162 12 40.0001 13.1852 40.0001 14.7654V60.1975C40.0001 60.5926 39.7038 60.8889 39.21 60.8889ZM9.58037 13.4815C8.88902 13.4815 8.29642 14.0741 8.29642 14.7654V58.2222C8.29642 58.9136 8.88902 59.5062 9.58037 59.5062H38.5186V14.7654C38.5186 14.0741 37.9261 13.4815 37.2347 13.4815H9.58037Z" fill="#2B2929"/>
<path d="M66.6668 60.8887H39.21C38.815 60.8887 38.4199 60.5924 38.4199 60.0985V20.5924C38.4199 20.1973 38.7162 19.8022 39.21 19.8022H46.1236C46.5187 19.8022 46.9137 20.0985 46.9137 20.5924V35.4072C46.9137 37.185 48.3952 38.5677 50.173 38.5677H64.0002C64.0989 38.5677 64.1977 38.5677 64.2965 38.6664L69.4323 40.8393C70.815 41.4319 71.7039 42.7158 71.7039 44.1973V55.8516C71.7039 56.8393 71.3088 57.7282 70.6175 58.5183L69.4323 59.7035C68.5434 60.4936 67.6545 60.8887 66.6668 60.8887ZM40.0002 59.4072H66.6668C67.2594 59.4072 67.852 59.2097 68.2471 58.7158L69.4323 57.5306C69.8273 57.1356 70.1236 56.543 70.1236 55.9504V44.2961C70.1236 43.4072 69.6298 42.6171 68.7409 42.222L63.8026 40.0492H50.0742C47.5063 40.0492 45.3335 37.9751 45.3335 35.4072V21.3825H39.9014V59.4072H40.0002Z" fill="#2B2929"/>
<path d="M23.4074 66.1228C26.6802 66.1228 29.3333 63.4697 29.3333 60.1969C29.3333 56.9241 26.6802 54.271 23.4074 54.271C20.1346 54.271 17.4814 56.9241 17.4814 60.1969C17.4814 63.4697 20.1346 66.1228 23.4074 66.1228Z" fill="white"/>
<path d="M26.568 55.0615C27.1606 55.9504 27.4569 57.0368 27.4569 58.1233C27.4569 61.3825 24.7902 64.0492 21.531 64.0492C20.4445 64.0492 19.3581 63.7529 18.4692 63.1603C19.5557 64.8393 21.3334 66.0245 23.5063 66.0245C26.7655 66.0245 29.4322 63.3578 29.4322 60.0986C29.3334 58.0245 28.247 56.1479 26.568 55.0615Z" fill="white"/>
<path d="M23.4075 66.8144C19.7531 66.8144 16.6914 63.8515 16.6914 60.0984C16.6914 56.4441 19.6544 53.3823 23.4075 53.3823C27.1605 53.3823 30.1235 56.3453 30.1235 60.0984C30.1235 63.8515 27.1605 66.8144 23.4075 66.8144ZM23.4075 54.9626C20.5433 54.9626 18.1729 57.3329 18.1729 60.1971C18.1729 63.0613 20.5433 65.4317 23.4075 65.4317C26.2717 65.4317 28.642 63.0613 28.642 60.1971C28.642 57.3329 26.2717 54.9626 23.4075 54.9626Z" fill="#2B2929"/>
<path d="M23.4074 62.1723C24.4984 62.1723 25.3827 61.2879 25.3827 60.197C25.3827 59.1061 24.4984 58.2217 23.4074 58.2217C22.3165 58.2217 21.4321 59.1061 21.4321 60.197C21.4321 61.2879 22.3165 62.1723 23.4074 62.1723Z" fill="white"/>
<path d="M23.4075 62.8639C21.926 62.8639 20.6421 61.6787 20.6421 60.0984C20.6421 58.617 21.8273 57.333 23.4075 57.333C24.9878 57.333 26.173 58.5182 26.173 60.0984C26.173 61.6787 24.9878 62.8639 23.4075 62.8639ZM23.4075 58.9133C22.7162 58.9133 22.1236 59.5058 22.1236 60.1972C22.1236 60.8886 22.7162 61.4812 23.4075 61.4812C24.0989 61.4812 24.6915 60.8886 24.6915 60.1972C24.6915 59.5058 24.0989 58.9133 23.4075 58.9133Z" fill="#2B2929"/>
<path d="M55.0124 66.1228C58.2851 66.1228 60.9383 63.4697 60.9383 60.1969C60.9383 56.9241 58.2851 54.271 55.0124 54.271C51.7396 54.271 49.0864 56.9241 49.0864 60.1969C49.0864 63.4697 51.7396 66.1228 55.0124 66.1228Z" fill="white"/>
<path d="M58.173 55.0615C58.7656 55.9504 59.0619 57.0368 59.0619 58.1233C59.0619 61.3825 56.3952 64.0492 53.1359 64.0492C52.0495 64.0492 50.9631 63.7529 50.0742 63.1603C51.1606 64.8393 52.9384 66.0245 55.1113 66.0245C58.3705 66.0245 61.0372 63.3578 61.0372 60.0986C60.9384 58.0245 59.852 56.1479 58.173 55.0615Z" fill="white"/>
<path d="M55.0124 66.8144C51.3581 66.8144 48.2964 63.8515 48.2964 60.0984C48.2964 56.4441 51.2593 53.3823 55.0124 53.3823C58.6668 53.3823 61.7285 56.3453 61.7285 60.0984C61.7285 63.8515 58.7655 66.8144 55.0124 66.8144ZM55.0124 54.9626C52.1482 54.9626 49.7779 57.3329 49.7779 60.1971C49.7779 63.0613 52.1482 65.4317 55.0124 65.4317C57.8766 65.4317 60.247 63.0613 60.247 60.1971C60.247 57.3329 57.8766 54.9626 55.0124 54.9626Z" fill="#2B2929"/>
<path d="M55.0124 62.1723C56.1034 62.1723 56.9877 61.2879 56.9877 60.197C56.9877 59.1061 56.1034 58.2217 55.0124 58.2217C53.9215 58.2217 53.0371 59.1061 53.0371 60.197C53.0371 61.2879 53.9215 62.1723 55.0124 62.1723Z" fill="white"/>
<path d="M55.0125 62.8639C53.531 62.8639 52.2471 61.6787 52.2471 60.0984C52.2471 58.617 53.4323 57.333 55.0125 57.333C56.494 57.333 57.7779 58.5182 57.7779 60.0984C57.7779 61.6787 56.5927 62.8639 55.0125 62.8639ZM55.0125 58.9133C54.3211 58.9133 53.7286 59.5058 53.7286 60.1972C53.7286 60.8886 54.3211 61.4812 55.0125 61.4812C55.7039 61.4812 56.2965 60.8886 56.2965 60.1972C56.2965 59.5058 55.7039 58.9133 55.0125 58.9133Z" fill="#2B2929"/>
<path d="M51.062 44.0983H47.1114C46.7164 44.0983 46.3213 43.802 46.3213 43.3082C46.3213 42.9131 46.6176 42.5181 47.1114 42.5181H51.062C51.4571 42.5181 51.8522 42.8144 51.8522 43.3082C51.8522 43.802 51.5559 44.0983 51.062 44.0983Z" fill="#2B2929"/>
<path d="M34.2719 38.1725H12.5435C12.1485 38.1725 11.7534 37.8762 11.7534 37.3824C11.7534 36.9873 12.0497 36.5923 12.5435 36.5923H34.2719C34.667 36.5923 35.0621 36.8886 35.0621 37.3824C35.0621 37.8762 34.7658 38.1725 34.2719 38.1725Z" fill="#FFBC57"/>
<path d="M34.2719 44.0983H12.5435C12.1485 44.0983 11.7534 43.802 11.7534 43.3082C11.7534 42.9131 12.0497 42.5181 12.5435 42.5181H34.2719C34.667 42.5181 35.0621 42.8144 35.0621 43.3082C35.0621 43.802 34.7658 44.0983 34.2719 44.0983Z" fill="#FFBC57"/>
<path d="M34.2719 50.0246H12.5435C12.1485 50.0246 11.7534 49.7283 11.7534 49.2345C11.7534 48.8394 12.0497 48.4443 12.5435 48.4443H34.2719C34.667 48.4443 35.0621 48.7406 35.0621 49.2345C35.0621 49.7283 34.7658 50.0246 34.2719 50.0246Z" fill="#FFBC57"/>
<path d="M34.2719 32.2468H12.5435C12.1485 32.2468 11.7534 31.9505 11.7534 31.4566C11.7534 31.0616 12.0497 30.6665 12.5435 30.6665H34.2719C34.667 30.6665 35.0621 30.9628 35.0621 31.4566C35.0621 31.9505 34.7658 32.2468 34.2719 32.2468Z" fill="#FFBC57"/>
<path d="M34.2719 26.3205H12.5435C12.1485 26.3205 11.7534 26.0242 11.7534 25.5304C11.7534 25.1353 12.0497 24.7402 12.5435 24.7402H34.2719C34.667 24.7402 35.0621 25.0365 35.0621 25.5304C35.0621 26.0242 34.7658 26.3205 34.2719 26.3205Z" fill="#2B2929"/>
<path d="M34.2719 20.3947H12.5435C12.1485 20.3947 11.7534 20.0984 11.7534 19.6046C11.7534 19.2095 12.0497 18.8145 12.5435 18.8145H34.2719C34.667 18.8145 35.0621 19.1107 35.0621 19.6046C35.0621 20.0984 34.7658 20.3947 34.2719 20.3947Z" fill="#2B2929"/>
</svg>
