<svg width="80" height="80" viewBox="0 0 80 80" fill="none" xmlns="http://www.w3.org/2000/svg">
<path d="M38.3999 77.5C46.1319 77.5 52.3999 71.232 52.3999 63.5C52.3999 55.768 46.1319 49.5 38.3999 49.5C30.6679 49.5 24.3999 55.768 24.3999 63.5C24.3999 71.232 30.6679 77.5 38.3999 77.5Z" fill="#FFBC57"/>
<path d="M13 38.5C19.6274 38.5 25 33.1274 25 26.5C25 19.8726 19.6274 14.5 13 14.5C6.37258 14.5 1 19.8726 1 26.5C1 33.1274 6.37258 38.5 13 38.5Z" fill="#FFBC57"/>
<path d="M59.6001 49C70.6458 49 79.6001 40.0457 79.6001 29C79.6001 17.9543 70.6458 9 59.6001 9C48.5544 9 39.6001 17.9543 39.6001 29C39.6001 40.0457 48.5544 49 59.6001 49Z" fill="#FFBC57"/>
<path d="M70.7998 35.2002L42.7998 25.2002L14.7998 35.2002L42.7998 45.2002L70.7998 35.2002Z" fill="white"/>
<path d="M37.7998 27L14.7998 35.2L37.7998 43.5V27Z" fill="white"/>
<path d="M64.9998 37.2999L42.7998 29.3999V45.1999L64.9998 37.2999Z" fill="white"/>
<path d="M42.8 45.9999C42.7 45.9999 42.6 45.9999 42.5 45.9999L14.5 35.9999C14.2 35.8999 14 35.5999 14 35.2999C14 34.9999 14.2 34.6999 14.5 34.5999L42.5 24.5999C42.7 24.4999 42.8 24.4999 43 24.5999L71 34.5999C71.3 34.6999 71.5 34.9999 71.5 35.2999C71.5 35.5999 71.3 35.8999 71 35.9999L43 45.9999C42.9 45.9999 42.8 45.9999 42.8 45.9999ZM17 35.1999L42.8 44.3999L68.6 35.1999L42.8 25.9999L17 35.1999Z" fill="#2B2929"/>
<path d="M38.7998 18.2002L10.7998 28.2002L14.7998 35.2002L42.7998 25.2002L38.7998 18.2002Z" fill="white"/>
<path d="M42.7998 25.2002L38.7998 18.2002L32.4998 20.5002L33.7998 22.8002C34.3998 23.9002 33.8998 25.3002 32.6998 25.7002L13.2998 32.6002L14.7998 35.2002L42.7998 25.2002Z" fill="white"/>
<path d="M14.7999 36C14.4999 36 14.2999 35.9 14.0999 35.6L10.0999 28.6C9.9999 28.4 9.9999 28.2 10.0999 28C10.1999 27.8 10.2999 27.6 10.5999 27.6L38.5999 17.6C38.8999 17.5 39.2999 17.6 39.4999 17.9L43.4999 24.9C43.5999 25.1 43.5999 25.3 43.5999 25.5C43.4999 25.7 43.3999 25.9 43.0999 25.9L14.9999 36C14.8999 36 14.7999 36 14.7999 36ZM11.8999 28.7L15.0999 34.4L41.6999 24.9L38.4999 19.2L11.8999 28.7Z" fill="#2B2929"/>
<path d="M46.7998 18.2002L74.7998 28.2002L70.7998 35.2002L42.7998 25.2002L46.7998 18.2002Z" fill="white"/>
<path d="M70.7998 36.0001C70.6998 36.0001 70.5998 36.0001 70.4998 36.0001L42.4998 26.0001C42.2998 25.9001 42.0998 25.8001 41.9998 25.6001C41.8998 25.4001 41.8998 25.2001 42.0998 25.0001L46.0998 18.0001C46.2998 17.7001 46.6998 17.5001 46.9998 17.7001L74.9998 27.7001C75.1998 27.8001 75.3998 27.9001 75.4998 28.1001C75.5998 28.3001 75.5998 28.5001 75.3998 28.7001L71.3998 35.7001C71.2998 35.9001 70.9998 36.0001 70.7998 36.0001ZM43.8998 24.8001L70.4998 34.3001L73.6998 28.6001L47.0998 19.1001L43.8998 24.8001Z" fill="#2B2929"/>
<path d="M42.7998 70.2002L14.7998 60.2002V35.2002L42.7998 45.2002V70.2002Z" fill="white"/>
<path d="M36.3998 63.8002L14.7998 56.0002V35.2002L37.7998 43.4002V62.8002C37.7998 63.5002 37.0998 64.0002 36.3998 63.8002Z" fill="white"/>
<path d="M42.8 71C42.7 71 42.6 71 42.5 71L14.5 61C14.2 60.9 14 60.6 14 60.3V35.3C14 35.1 14.1 34.8 14.3 34.7C14.5 34.6 14.8 34.5 15 34.6L43 44.6C43.3 44.7 43.5 45 43.5 45.3V70.3C43.5 70.5 43.4 70.8 43.2 70.9C43.1 71 42.9 71 42.8 71ZM15.5 59.7L42 69.2V45.8L15.5 36.3V59.7Z" fill="#2B2929"/>
<path d="M38.7998 52.2002L10.7998 42.2002L14.7998 35.2002L42.7998 45.2002L38.7998 52.2002Z" fill="white"/>
<path d="M34.2002 47.7002L12.2002 39.8002L14.8002 35.2002L38.4002 43.6002L36.6002 46.7002C36.1002 47.6002 35.1002 48.0002 34.2002 47.7002Z" fill="white"/>
<path d="M38.8 53C38.7 53 38.6 53 38.5 53L10.5 43C10.3 42.9 10.1 42.8 10 42.6C10 42.3 10 42.1 10.1 41.9L14.1 34.9C14.3 34.6 14.7 34.4 15 34.6L43 44.6C43.2 44.7 43.4 44.8 43.5 45C43.6 45.2 43.6 45.4 43.4 45.6L39.4 52.6C39.3 52.9 39 53 38.8 53ZM11.9 41.8L38.5 51.3L41.7 45.6L15.1 36.1L11.9 41.8Z" fill="#2B2929"/>
<path d="M42.7998 70.2002L70.7998 60.2002V35.2002L42.7998 45.2002V70.2002Z" fill="white"/>
<path d="M42.7998 65.8002L65.4998 57.7002C66.2998 57.4002 66.7998 56.7002 66.7998 55.8002V36.7002L42.7998 45.3002V65.8002Z" fill="white"/>
<path d="M42.8001 71C42.6001 71 42.5001 71 42.4001 70.9C42.2001 70.8 42.1001 70.5 42.1001 70.3V45.3C42.1001 45 42.3001 44.7 42.6001 44.6L70.6001 34.6C70.8001 34.5 71.1001 34.6 71.3001 34.7C71.5001 34.8 71.6001 35.1 71.6001 35.3V60.3C71.6001 60.6 71.4001 60.9 71.1001 61L43.0001 71C42.9001 71 42.8001 71 42.8001 71ZM43.5001 45.8V69.2L70.0001 59.7V36.3L43.5001 45.8Z" fill="#2B2929"/>
<path d="M46.7998 52.2002L74.7998 42.2002L70.7998 35.2002L42.7998 45.2002L46.7998 52.2002Z" fill="white"/>
<path d="M45.2998 49.5998L66.4998 41.9998C67.6998 41.5998 68.1998 40.1998 67.5998 39.0998L66.2998 36.7998L42.7998 45.1998L45.2998 49.5998Z" fill="white"/>
<path d="M46.7999 53C46.4999 53 46.2999 52.9 46.0999 52.6L42.0999 45.6C41.9999 45.4 41.9999 45.2 42.0999 45C42.1999 44.8 42.2999 44.6 42.5999 44.6L70.5999 34.6C70.8999 34.5 71.2999 34.6 71.4999 34.9L75.4999 41.9C75.5999 42.1 75.5999 42.3 75.5999 42.5C75.4999 42.7 75.3999 42.9 75.0999 42.9L46.9999 53C46.8999 53 46.7999 53 46.7999 53ZM43.8999 45.7L47.0999 51.4L73.6999 41.9L70.4999 36.2L43.8999 45.7Z" fill="#2B2929"/>
<path d="M48.7998 19.5002V39.8002H36.7998V19.5002H28.7998L42.7998 5.2002L56.6998 19.5002H48.7998Z" fill="white"/>
<path d="M43.3002 39H37.5002V19.5C37.5002 19.1 37.2002 18.7 36.7002 18.7H30.5002L42.8002 6.3L46.0002 9.6C46.1002 9.7 46.2002 9.7 46.3002 9.6L47.0002 8.8C47.1002 8.7 47.1002 8.6 47.0002 8.5L43.3002 4.7C43.2002 4.6 43.0002 4.5 42.8002 4.5C42.6002 4.5 42.4002 4.6 42.3002 4.7L28.2002 19C28.0002 19.2 27.9002 19.5 28.0002 19.8C28.1002 20.1 28.4002 20.3 28.7002 20.3H36.0002V39.8C36.0002 40.2 36.3002 40.6 36.8002 40.6H43.3002C43.4002 40.6 43.5002 40.5 43.5002 40.4V39.3C43.5002 39.1 43.4002 39 43.3002 39Z" fill="#FFBC57"/>
<path d="M48 9.9002L47.2 10.7002C47.1 10.8002 47.1 10.9002 47.2 11.0002L54.9 18.8002H48.7C48.3 18.8002 47.9 19.1002 47.9 19.6002V39.0002H45.1C45 39.0002 45 39.1002 45 39.2002V40.3002C45 40.4002 45.1 40.5002 45.2 40.5002H48.8C49.2 40.5002 49.6 40.2002 49.6 39.7002V20.3002H56.8C57.1 20.3002 57.4 20.1002 57.5 19.8002C57.6 19.5002 57.6 19.2002 57.3 19.0002L48.4 9.9002C48.3 9.8002 48.1 9.8002 48 9.9002Z" fill="#2B2929"/>
</svg>
